
<svg xmlns="http://www.w3.org/2000/svg" xmlns:xlink="http://www.w3.org/1999/xlink" width="256" height="256" viewBox="0 0 256 256">
  <defs>
    <filter id="Ellipse_23" x="0" y="0" width="256" height="256" filterUnits="userSpaceOnUse">
      <feOffset dy="3" input="SourceAlpha"/>
      <feGaussianBlur stdDeviation="7" result="blur"/>
      <feFlood flood-opacity="0.161"/>
      <feComposite operator="in" in2="blur"/>
      <feComposite in="SourceGraphic"/>
    </filter>
  </defs>
  <g id="Best_pricing_icon" data-name="Best pricing icon" transform="translate(21 18)">
    <g transform="matrix(1, 0, 0, 1, -21, -18)" filter="url(#Ellipse_23)">
      <circle id="Ellipse_23-2" data-name="Ellipse 23" cx="107" cy="107" r="107" transform="translate(21 18)" fill="#fff"/>
    </g>
    <path id="iconfinder_05.Tag_290145" d="M102.058,55.229,47.779,109.508a2.033,2.033,0,0,1-.226.343,2.5,2.5,0,0,1-3.4,0,2.188,2.188,0,0,1-.226-.343L4.012,69.6a2.132,2.132,0,0,1-.343-.226,2.5,2.5,0,0,1,0-3.4,2.305,2.305,0,0,1,.343-.226L58.291,11.465a2.332,2.332,0,0,1,1.845-.941h9.658a13.6,13.6,0,0,1,3.976-8.769l.038.043a2.479,2.479,0,0,1,1.8-.8,2.642,2.642,0,0,1,2.553,2.722,2.721,2.721,0,0,1-1.05,2.141,7.787,7.787,0,0,0-2.224,4.662H86.328a2.325,2.325,0,0,1,1.845.941l13.882,13.882A2.344,2.344,0,0,1,103,27.194V53.384A2.333,2.333,0,0,1,102.058,55.229ZM77.418,38.3a2.466,2.466,0,0,1-1.8.8,2.638,2.638,0,0,1-2.548-2.722,2.729,2.729,0,0,1,1.05-2.143,6.913,6.913,0,0,0,1.469-2.1,4.776,4.776,0,1,0,4.922,1.622C79.042,37.435,77.418,38.3,77.418,38.3ZM98.234,28.1,85.421,15.286H75.39a7.057,7.057,0,0,0,1.726,2.619h0a2.334,2.334,0,0,1,.3.219l.043-.043a13.85,13.85,0,0,1,4.107,10.129c0,.1-.024.188-.029.286a9.509,9.509,0,1,1-5.162-1.262,7.953,7.953,0,0,0-2.26-5.043,2.768,2.768,0,0,1-.307-.219l-.038.043a13.185,13.185,0,0,1-3.7-6.729H61.044L8.66,67.67l37.19,37.19L98.234,52.476V28.1ZM29.864,63.586a2.327,2.327,0,0,1,3.288,0L49.936,80.371a2.325,2.325,0,0,1-3.288,3.288L29.864,66.875A2.327,2.327,0,0,1,29.864,63.586Zm9.524-9.524a2.327,2.327,0,0,1,3.288,0L59.458,70.846a2.325,2.325,0,1,1-3.288,3.288L39.388,57.35A2.327,2.327,0,0,1,39.388,54.062Z" transform="translate(54 51)" fill="#2f194c" fill-rule="evenodd"/>
  </g>
</svg>

