
<svg xmlns="http://www.w3.org/2000/svg" xmlns:xlink="http://www.w3.org/1999/xlink" width="256" height="256" viewBox="0 0 256 256">
  <defs>
    <filter id="Ellipse_30" x="0" y="0" width="256" height="256" filterUnits="userSpaceOnUse">
      <feOffset dy="3" input="SourceAlpha"/>
      <feGaussianBlur stdDeviation="7" result="blur"/>
      <feFlood flood-opacity="0.161"/>
      <feComposite operator="in" in2="blur"/>
      <feComposite in="SourceGraphic"/>
    </filter>
  </defs>
  <g id="_24_7_icon" data-name="24/7 icon" transform="translate(21 18)">
    <g transform="matrix(1, 0, 0, 1, -21, -18)" filter="url(#Ellipse_30)">
      <circle id="Ellipse_30-2" data-name="Ellipse 30" cx="107" cy="107" r="107" transform="translate(21 18)" fill="#fff"/>
    </g>
    <g id="Support" transform="translate(-154.918 -279.213)">
      <path id="Path_117" data-name="Path 117" d="M319.6,414.494v-67.91c0-8.2-9.19-8.265-9.19-8.265h-28.62c-7.278-7.525-18.627-8.018-18.627-8.018-14,0-20.971,7.9-20.971,7.9H213.02c-8.2,0-8.82,9.745-8.82,9.745v67.787c0,9.5,11.041,8.82,11.041,8.82h29.607l-.123,12.459h-1.912c-.8,0-2.837.185-2.837,2.406a2.8,2.8,0,0,0,2.1,2.714h39.352a2.292,2.292,0,0,0,2.591-2.1,2.6,2.6,0,0,0-2.035-2.961h-2.961V424.486s21.958.37,31.765,0C320.652,424.116,319.6,414.494,319.6,414.494ZM273.837,436.76H250.275V424.548h23.562Zm40.524-20.971s0,3.454-3.269,3.454H213.514s-4.009-.062-4.009-4.009V347.2s-.062-3.762,3.207-3.762h24.919a43.929,43.929,0,0,0-2.282,4.873h-5.86s-7.71,1.3-7.71,6.847v11.164s.185,7.155,6.168,8.574a29.437,29.437,0,0,0,5.921.247s2.961,16.284,16.654,27.694c0,0,4.688,2.961,9.005,2.837s14,.308,20.663-10.794h-6.168a15.431,15.431,0,0,1-12.089,5.675c-8.018,0-10.917-4.749-12.213-6.291-1.357-1.542-14.495-12.644-10.362-42.436,0,0,6.291-16.345,21.9-16.222a24.074,24.074,0,0,1,24.055,20.231c1.11,7.9-.432,23.315-4.626,29.175h5.49a28.341,28.341,0,0,0,3.7-9.931h2.652V379.4s-.247,5.49-4.194,7.093a11.3,11.3,0,0,1-3.454.925H272.788s-1.727-1.6-2.776-1.727c-1.11-.123-6.045,0-6.045,0a4.2,4.2,0,0,0-3.207,4.379c-.062,3.824,4.5,3.886,4.5,3.886h4.318a3.857,3.857,0,0,0,2.714-1.6h13.2s7.957-.247,10.732-6.785a16.78,16.78,0,0,0,1.3-4.688V374.34s4.626-2.714,4.626-7.093V357.069s.123-3.022-1.11-4.688a9.6,9.6,0,0,0-6.785-3.948,32.057,32.057,0,0,0-5.428,0,31.425,31.425,0,0,0-2.529-4.811h24.672s3.454-.062,3.454,3.207S314.361,415.789,314.361,415.789ZM233.375,369.96s-5.8,1.172-6.538-2.961v-9.314s0-3.947,3.269-3.947h3.269S233.066,367.8,233.375,369.96Zm56.931-16.222h3.763s3.146.555,3.146,3.392v8.944s-.062,4.071-3.022,4.071h-3.577S291.293,358.18,290.306,353.739Z" transform="translate(0 0)" fill="#2f194c"/>
      <circle id="Ellipse_24" data-name="Ellipse 24" cx="2.529" cy="2.529" r="2.529" transform="translate(259.527 428.125)" fill="#2f194c"/>
    </g>
  </g>
</svg>

