<svg id="Twitter_icon" data-name="Twitter icon" xmlns="http://www.w3.org/2000/svg" width="43.579" height="43.579" viewBox="0 0 43.579 43.579">
    <g id="Twitter_icon-2" data-name="Twitter icon">
      <rect id="Rectangle_43" data-name="Rectangle 43" width="43.579" height="43.579" rx="7" fill="#fff"/>
    </g>
    <path id="Path_85" data-name="Path 85" d="M517.228,2018.8s5,6.127,12.646,6.339c0,0-.818-6,4.552-7.311a6.807,6.807,0,0,1,6.1,1.822l3.852-1.546a5.262,5.262,0,0,1-2.671,3.316,9.787,9.787,0,0,0,3.4-.8,10.483,10.483,0,0,1-2.974,3.184s1.243,10.678-9.951,16.683c0,0-8.645,4.323-16.972-1a13.307,13.307,0,0,0,8.92-2.685,6.1,6.1,0,0,1-5.642-4.277l2.685-.136a6.271,6.271,0,0,1-4.914-6.189l2.731.864S514.376,2023.773,517.228,2018.8Z" transform="translate(-506.552 -2007.699)" fill="#2f194c"/>
  </svg>