
<svg xmlns="http://www.w3.org/2000/svg" xmlns:xlink="http://www.w3.org/1999/xlink" width="256" height="256" viewBox="0 0 256 256">
  <defs>
    <filter id="Ellipse_21" x="0" y="0" width="256" height="256" filterUnits="userSpaceOnUse">
      <feOffset dy="2" input="SourceAlpha"/>
      <feGaussianBlur stdDeviation="7" result="blur"/>
      <feFlood flood-opacity="0.161"/>
      <feComposite operator="in" in2="blur"/>
      <feComposite in="SourceGraphic"/>
    </filter>
  </defs>
  <g id="Utra_fast_icon" data-name="Utra fast icon" transform="translate(21 19)">
    <g transform="matrix(1, 0, 0, 1, -21, -19)" filter="url(#Ellipse_21)">
      <circle id="Ellipse_21-2" data-name="Ellipse 21" cx="107" cy="107" r="107" transform="translate(21 19)" fill="#fff"/>
    </g>
    <g id="Speed" transform="translate(-132.698 -170.283)">
      <path id="Path_100" data-name="Path 100" d="M296.7,231.427c0-4.686-2.209-6.941-6.816-6.941q-49.83-.007-99.661,0c-4.639,0-6.895,2.246-6.895,6.862q-.007,43.966,0,87.937c0,4.681,2.481,7.01,7.158,6.867,1.391-.042,2.532-.416,2.555-1.945s-1.086-1.955-2.5-2c-3.193-.111-3.309-.282-3.309-3.632,0-24.02.028-48.04-.046-72.06,0-1.978.388-2.551,2.472-2.537,16.774.1,33.544.055,50.318.055s33.548.037,50.318-.046c1.955-.009,2.56.351,2.551,2.458-.088,24.02-.055,48.04-.055,72.06,0,3.466,0,3.5-3.48,3.706-1.322.079-2.3.55-2.329,1.927s.906,1.913,2.241,2.015c4.783.37,7.481-2.13,7.481-7.029Q296.7,275.268,296.7,231.427Zm-5.989,8.738c-11.728-.083-23.452-.042-35.18-.042H239.891c-16.774,0-33.553-.032-50.327.046-1.908.009-2.56-.453-2.371-2.38.176-1.774.037-3.581.037-5.37,0-3.979.042-4.025,3.914-4.025h88.436c3.341,0,6.677-.009,10.018,0,2.865.009,3.175.337,3.188,3.281.009,2.116-.12,4.242.042,6.349C292.959,239.749,292.427,240.179,290.708,240.165Z" transform="translate(0 0)" fill="#2f194c"/>
      <path id="Path_101" data-name="Path 101" d="M279.584,304.713c-14.824-10.855-35.572-11.058-50.831-.739-1.178.795-2.26,1.664-1.386,3.124,1.1,1.848,2.449.8,3.724,0,13.253-8.295,27-9.159,41.057-2.347,21.483,10.411,29.2,38.276,16.289,58.363-.628.98-1.146,1.742-2.583,1.737q-32.127-.09-64.259-.018a2.451,2.451,0,0,1-2.38-1.229,40.27,40.27,0,0,1-6.539-20.157,40.839,40.839,0,0,1,8.928-27.684c.878-1.123,1.53-2.338.176-3.392-1.335-1.035-2.352-.157-3.253.975a44.9,44.9,0,0,0-1.867,53.428,4.029,4.029,0,0,0,3.8,1.982c11.077-.065,22.153-.032,33.229-.032q16.74,0,33.474.014a3.3,3.3,0,0,0,3.138-1.368,43.52,43.52,0,0,0,8.281-24.325C298.928,327.037,292.5,314.172,279.584,304.713Z" transform="translate(-13.677 -38.684)" fill="#2f194c"/>
      <path id="Path_102" data-name="Path 102" d="M292.372,371.848c1.714.993,2.468-.439,3.156-1.668a35.513,35.513,0,0,0,4.385-22.763c-2.592-19.653-22.934-33.839-42.185-29.219-18.752,4.5-30.073,21.15-27.264,40.207a33.048,33.048,0,0,0,4.547,12.255c.679,1.128,1.539,2.061,2.948,1.174,1.335-.846,1.081-2.024.37-3.193-.213-.347-.4-.707-.6-1.063-11.418-20.822,3.678-46.288,27.43-46.312,1.3.069,2.615.028,3.9.217,22.5,3.369,34.08,26.843,23.082,46.769C291.448,369.528,290.708,370.886,292.372,371.848Z" transform="translate(-25.129 -49.937)" fill="#2f194c"/>
      <path id="Path_103" data-name="Path 103" d="M312.361,366.455c1.058-1.03,1.7-2.172.49-3.336-1.091-1.044-2.2-.485-3.161.522-1.687,1.761-3.429,3.466-5.176,5.171-1.506,1.469-2.708,3.711-5.051,2.269a5.928,5.928,0,0,0-6.151,6.22,6,6,0,0,0,6.322,5.462,5.836,5.836,0,0,0,5.259-6.862,2.656,2.656,0,0,1,.9-2.911C308.008,370.836,310.143,368.6,312.361,366.455Zm-13.133,12.43c-1.155-.171-1.987-.725-1.992-1.987a1.761,1.761,0,0,1,1.747-1.913,1.8,1.8,0,0,1,2.116,1.788C301.2,378.035,300.378,378.632,299.228,378.886Z" transform="translate(-59.156 -74.272)" fill="#2f194c"/>
      <path id="Path_104" data-name="Path 104" d="M287.339,427.53c-1.322,0-2.324.508-2.371,1.871-.051,1.52,1.007,2.061,2.431,2.052,2.357-.018,4.713,0,7.075,0,2.518,0,5.042-.014,7.56,0,1.317.009,2.329-.5,2.371-1.867.051-1.516-1.007-2.056-2.431-2.052Q294.66,427.548,287.339,427.53Z" transform="translate(-54.674 -109.22)" fill="#2f194c"/>
      <path id="Path_105" data-name="Path 105" d="M303.712,336.112c1.511.055,1.978-1.1,1.969-2.509-.009-1.511.079-3.161-1.973-3.235-1.516-.055-2.015,1.109-1.95,2.634C301.692,334.393,301.664,336.038,303.712,336.112Z" transform="translate(-63.695 -56.955)" fill="#2f194c"/>
      <path id="Path_106" data-name="Path 106" d="M242.669,391.3c-.046,1.867,1.4,2.126,2.934,2.038,1.409.106,2.763-.189,2.81-1.871.051-1.867-1.4-2.061-2.911-2.061C244.083,389.41,242.715,389.613,242.669,391.3Z" transform="translate(-31.922 -88.715)" fill="#2f194c"/>
      <path id="Path_107" data-name="Path 107" d="M359.721,393.342c1.553.088,2.99-.185,2.925-2.056-.06-1.691-1.437-1.876-2.851-1.876-1.52,0-2.957.217-2.888,2.079C356.963,393.171,358.33,393.449,359.721,393.342Z" transform="translate(-93.37 -88.715)" fill="#2f194c"/>
      <path id="Path_108" data-name="Path 108" d="M272.265,340.346c.347,1.53.869,3.295,2.833,3.5,1.215.125,1.867-.781,2.024-2.315-.91-.938-.832-3.036-2.953-3.142C272.935,338.326,271.992,339.14,272.265,340.346Z" transform="translate(-47.817 -61.267)" fill="#2f194c"/>
      <path id="Path_109" data-name="Path 109" d="M334.107,340.342c.3-1.2-.633-1.895-2-2.042-1.83.337-2.384,1.959-2.736,3.484a1.658,1.658,0,0,0,1.867,2.015C333.233,343.646,333.728,341.854,334.107,340.342Z" transform="translate(-78.536 -61.223)" fill="#2f194c"/>
      <path id="Path_110" data-name="Path 110" d="M254.216,364.591a1.658,1.658,0,0,0,1.932-1.95c-.236-1.964-2.126-2.172-3.447-2.92-1.289.213-2.149.836-1.992,2.089C250.949,363.773,252.682,364.29,254.216,364.591Z" transform="translate(-36.237 -72.744)" fill="#2f194c"/>
      <path id="Path_111" data-name="Path 111" d="M351.523,364.69c1.516-.365,3.156-.91,3.47-2.749-.157-1.368-.859-2.3-2.061-1.982-1.506.393-3.313.873-3.438,2.884A1.656,1.656,0,0,0,351.523,364.69Z" transform="translate(-89.382 -72.84)" fill="#2f194c"/>
      <path id="Path_112" data-name="Path 112" d="M252.424,421.862c1.349.152,3.752-1.71,3.78-3.2-.222-.8-.809-1.858-2.019-1.59-1.52.337-3.253.832-3.47,2.828A1.716,1.716,0,0,0,252.424,421.862Z" transform="translate(-36.243 -103.57)" fill="#2f194c"/>
      <path id="Path_113" data-name="Path 113" d="M352.975,421.8c1.206.286,1.881-.665,2-1.728,0-1.275-2.079-3.055-3.466-3.055-1.248,0-2.112.744-2.006,1.941C349.675,420.934,351.454,421.442,352.975,421.8Z" transform="translate(-89.382 -103.566)" fill="#2f194c"/>
      <path id="Path_114" data-name="Path 114" d="M202.273,241.47a1.805,1.805,0,0,0-1.964,2,1.783,1.783,0,0,0,1.881,1.844c1.252.014,1.876-.79,2.015-1.987C204,242.228,203.4,241.475,202.273,241.47Z" transform="translate(-9.136 -9.138)" fill="#2f194c"/>
      <path id="Path_115" data-name="Path 115" d="M219.148,241.32c-1.049.185-1.913.725-1.918,2a1.784,1.784,0,0,0,1.811,1.913,1.812,1.812,0,0,0,2.038-1.927C221.1,242.17,220.349,241.57,219.148,241.32Z" transform="translate(-18.239 -9.057)" fill="#2f194c"/>
      <path id="Path_116" data-name="Path 116" d="M236.04,241.469a1.788,1.788,0,0,0-1.881,1.844,1.811,1.811,0,0,0,1.959,2.005c1.132,0,1.728-.753,1.955-1.973C237.865,242.315,237.315,241.446,236.04,241.469Z" transform="translate(-27.344 -9.137)" fill="#2f194c"/>
    </g>
  </g>
</svg>
